# xmcd
#
# Track frame offsets:
#	150
#	15987
#	33112
#	47492
#	60935
#	81527
#	96510
#	117707
#	133540
#	158217
#	171245
#	190722
#
# Disc length: 2739 seconds
#
# Revision: 0
# Processed by: cddbd v1.5.1PL2 Copyright (c) Steve Scherf et al.
# Submitted via: dBpowerAMP V4.0
#
DISCID=960ab10c
DTITLE=Various Artist - American Country
DYEAR=2005
DGENRE=Country
TTITLE0=Lee Greenwood - God Bless The USA 2003
TTITLE1=Aaron Tippin - Where The Stars And Stripes And The Eagle Fly
TTITLE2=Phil Vassar - American Child
TTITLE3=Blackhawk - Days Of America
TTITLE4=Paul Overstreet - Heroes
TTITLE5=Charlie Daniels - In America
TTITLE6=Alabama - American Pride
TTITLE7=Johnny Cash - Song Of The Patriot
TTITLE8=Kris Kristofferson - Worth Fighting For
TTITLE9=Waylon Jennings - The Eagle
TTITLE10=Willie Nelson - Georgia On My Mind
TTITLE11=Merle Haggard - Amber Waves Of Grain
EXTD=
EXTT0=
EXTT1=
EXTT2=
EXTT3=
EXTT4=
EXTT5=
EXTT6=
EXTT7=
EXTT8=
EXTT9=
EXTT10=
EXTT11=
PLAYORDER=
